# xmcd CD database file
#
# Track frame offsets:
#	210
#	15348
#	30894
#	53300
#	76956
#	92315
#	132306
#	146111
#	167875
#	187073
#	197616
#	221842
#	243631
#	257577
#
# Disc length: 3733 seconds
#
# Revision: 0
# Processed by: cddbd v1.5.1PL0 Copyright (c) Steve Scherf et al.
# Submitted via: CDex 1.51
#
DISCID=b40e930e
DTITLE=Lyromantgarde - Nackte Engel
DYEAR=1997
DGENRE=Jazz
TTITLE0=Csokolom
TTITLE1=Rosa's Nachmittag
TTITLE2=Golden Dance
TTITLE3=Nackte Engel
TTITLE4=Farafina Oumou
TTITLE5=Nina
TTITLE6=Schacherldeifi
TTITLE7=Be My Girl
TTITLE8=Branle
TTITLE9=Nanuk
TTITLE10=Valse Triste
TTITLE11=Polonaise Italienne
TTITLE12=Die Wüste Tanzt
TTITLE13=Waltz For Otto Dix
EXTD=YEAR: 1997
EXTT0=
EXTT1=
EXTT2=
EXTT3=
EXTT4=
EXTT5=
EXTT6=
EXTT7=
EXTT8=
EXTT9=
EXTT10=
EXTT11=
EXTT12=
EXTT13=
PLAYORDER=
